/* XPM */
const char *leaficon_small[] = {
"55 55 256 2",
"  	c None",
". 	c #125432",
"+ 	c #155434",
"@ 	c #1D5335",
"# 	c #175535",
"$ 	c #195537",
"% 	c #1C5537",
"& 	c #1A5638",
"* 	c #1B5636",
"= 	c #205536",
"- 	c #1E5636",
"; 	c #1B5738",
"> 	c #215635",
", 	c #255536",
"' 	c #225637",
") 	c #1F5836",
"! 	c #215939",
"~ 	c #225936",
"{ 	c #265939",
"] 	c #28593D",
"^ 	c #275A37",
"/ 	c #2C5B37",
"( 	c #305B37",
"_ 	c #2C5F38",
": 	c #276137",
"< 	c #2F603D",
"[ 	c #2A6337",
"} 	c #2C6537",
"| 	c #386239",
"1 	c #33643A",
"2 	c #3B6149",
"3 	c #336541",
"4 	c #3D6339",
"5 	c #2B6937",
"6 	c #2C6936",
"7 	c #2A6A36",
"8 	c #2B6A36",
"9 	c #2E6937",
"0 	c #376643",
"a 	c #3C653D",
"b 	c #316937",
"c 	c #33683E",
"d 	c #38673F",
"e 	c #2E6B36",
"f 	c #436639",
"g 	c #306C38",
"h 	c #386944",
"i 	c #326C38",
"j 	c #3A6944",
"k 	c #316D37",
"l 	c #446550",
"m 	c #306E36",
"n 	c #346D37",
"o 	c #336E37",
"p 	c #3D6B38",
"q 	c #376E37",
"r 	c #346F38",
"s 	c #3E6C38",
"t 	c #3E6C46",
"u 	c #3A6F37",
"v 	c #377037",
"w 	c #367137",
"x 	c #496B39",
"y 	c #3F6E47",
"z 	c #4D6B39",
"A 	c #3B7137",
"B 	c #387237",
"C 	c #456F38",
"D 	c #416F48",
"E 	c #3F713F",
"F 	c #3B7338",
"G 	c #4D6B58",
"H 	c #407338",
"I 	c #457149",
"J 	c #3E7538",
"K 	c #3D753D",
"L 	c #516F3B",
"M 	c #407537",
"N 	c #4D713A",
"O 	c #477438",
"P 	c #54703A",
"Q 	c #45744B",
"R 	c #447639",
"S 	c #427838",
"T 	c #52705C",
"U 	c #447746",
"V 	c #497839",
"W 	c #477939",
"X 	c #4C7839",
"Y 	c #4F7839",
"Z 	c #4B784E",
"` 	c #457B42",
" .	c #487C39",
"..	c #4F7A3A",
"+.	c #5A7462",
"@.	c #5D773B",
"#.	c #4F7B50",
"$.	c #5E7667",
"%.	c #577C3B",
"&.	c #4D803A",
"*.	c #617A3C",
"=.	c #4B8047",
"-.	c #5B7D3A",
";.	c #50823A",
">.	c #547F53",
",.	c #51814B",
"'.	c #5C803A",
").	c #667D3D",
"!.	c #56833B",
"~.	c #53853A",
"{.	c #657C6D",
"].	c #62833B",
"^.	c #56873A",
"/.	c #62853C",
"(.	c #578750",
"_.	c #5F873C",
":.	c #59893B",
"<.	c #5A8758",
"[.	c #6E833E",
"}.	c #5A8A3A",
"|.	c #68863C",
"1.	c #5E8A3D",
"2.	c #68883C",
"3.	c #608B3C",
"4.	c #5E8C3B",
"5.	c #5C8B51",
"6.	c #6C893D",
"7.	c #708376",
"8.	c #73873F",
"9.	c #618B5B",
"0.	c #618F3C",
"a.	c #648E3D",
"b.	c #738B3E",
"c.	c #718D3E",
"d.	c #64923D",
"e.	c #629157",
"f.	c #64933C",
"g.	c #66905E",
"h.	c #7C8E3F",
"i.	c #68953D",
"j.	c #649458",
"k.	c #71943E",
"l.	c #689461",
"m.	c #79923F",
"n.	c #67965C",
"o.	c #7F9140",
"p.	c #6A983E",
"q.	c #75973F",
"r.	c #6D9A3E",
"s.	c #7E953F",
"t.	c #6D9865",
"u.	c #839541",
"v.	c #6F9C3E",
"w.	c #829640",
"x.	c #6A9B5E",
"y.	c #829187",
"z.	c #81983F",
"A.	c #6F9E3F",
"B.	c #769C3F",
"C.	c #729E3F",
"D.	c #719F3F",
"E.	c #719D66",
"F.	c #72A040",
"G.	c #71A13E",
"H.	c #74A03F",
"I.	c #859B40",
"J.	c #73A13F",
"K.	c #829E40",
"L.	c #8B9B43",
"M.	c #75A069",
"N.	c #73A169",
"O.	c #72A265",
"P.	c #7AA340",
"Q.	c #8D9D42",
"R.	c #8C9F42",
"S.	c #8D9990",
"T.	c #909F42",
"U.	c #77A46B",
"V.	c #80A541",
"W.	c #92A243",
"X.	c #909C94",
"Y.	c #90A342",
"Z.	c #95A243",
"`.	c #7CA86E",
" +	c #94A643",
".+	c #94A097",
"++	c #8DAB43",
"@+	c #7FAC71",
"#+	c #98A944",
"$+	c #9BA845",
"%+	c #9AAB44",
"&+	c #9AA49D",
"*+	c #82AF73",
"=+	c #9EAD45",
"-+	c #84B176",
";+	c #A1AC47",
">+	c #A0AD46",
",+	c #84B473",
"'+	c #A3AF47",
")+	c #9FA9A3",
"!+	c #85B576",
"~+	c #A1B146",
"{+	c #A4B246",
"]+	c #A8B247",
"^+	c #A1B547",
"/+	c #87B979",
"(+	c #8AB87A",
"_+	c #A7B447",
":+	c #A5B748",
"<+	c #A6AFA8",
"[+	c #8CBC7A",
"}+	c #AAB748",
"|+	c #ABB748",
"1+	c #8FBC7D",
"2+	c #AEBA48",
"3+	c #ACBB47",
"4+	c #92C07F",
"5+	c #90C17E",
"6+	c #AFBC4A",
"7+	c #B1BC49",
"8+	c #AEB5AF",
"9+	c #B1BD4A",
"0+	c #B3BF4A",
"a+	c #92C581",
"b+	c #B5BF4B",
"c+	c #96C482",
"d+	c #95C581",
"e+	c #B6C04A",
"f+	c #94C681",
"g+	c #B7C14B",
"h+	c #97C783",
"i+	c #B8C24C",
"j+	c #B7C34C",
"k+	c #B8C34A",
"l+	c #98CA86",
"m+	c #9ACA85",
"n+	c #9ACA86",
"o+	c #B7BEB9",
"p+	c #9DCC87",
"q+	c #9BCD86",
"r+	c #9BCD87",
"s+	c #9CCD87",
"t+	c #9ECF89",
"u+	c #BCC2BE",
"v+	c #C1C7C3",
"w+	c #C7CCC8",
"x+	c #CBCFCC",
"y+	c #CED1CF",
"z+	c #D9DCD9",
"A+	c #DFE1DF",
"B+	c #E9EAEA",
"C+	c #F0F0F0",
"D+	c #F5F5F5",
"E+	c #F8F8F8",
"F+	c #FBFBFB",
"G+	c #FFFFFF",
"                                                                                        9 9 9                 ",
"                                                                                9 9 9 6 7 7 5                 ",
"                                                                      b 9 5 5 6 6 g H 6.R._.5                 ",
"                                                              9 9 6 6 6 6 u X 6.R.{+b+g+:+d.7 9               ",
"                                                    9 9 9 6 7 6 6 X |.w.#+_+e+k+g+g+g+0+V.p.6 5               ",
"                                              9 5 6 6 e n '.s. +}+9+b+k+k+i+g+g+g+i+g+^+F.C.n 9               ",
"                                        b 6 6 6 o Y m.#+2+g+g+g+g+j+i+i+0+|+$+7+k+k+0+P.H.C.S 6               ",
"                                    9 6 6 6 %.I.~+b+g+j+k+j+g+i+g+7+W.8.P { $ W.g+j+++J.H.F.&.6               ",
"                                9 6 6 n c.=+0+g+g+k+k+g+g+g+g+g+i+$+! - & & $ Z.g+:+H.H.H.F.:.6               ",
"                              5 6 u m._+g+g+g+g+k+j+g+{+R.j+g+i+i+g+2+@.& $ $ $+9+V.H.H.H.H.d.6 b             ",
"                          5 5 e 6._+g+g+g+g+g+g+j+i+g+m.I.k+g+i+i+g+o.- f ).$ $+++H.H.H.H.H.p.6 9             ",
"                        5 5 O  +e+g+g+g+g+g+g+g+g+i+b+X  +j+g+g+g+o.- 4 >+>+- K.F.H.H.H.H.H.v.v 5             ",
"                      6 6 ].}+j+g+g+~+9+g+g+j+g+g+j+{+H ~+g+g+0+h.> 4 ;+g+g+I.C.H.J.H.H.H.H.C.M 6             ",
"                    6 5 m.0+g+g+i+g+'.{+j+g+g+g+j+j+ +R }+g+9+[.% 4 >+g+g+3+P.J.J.v.f.4.H.H.H.W 6             ",
"                  5 5 z.0+j+g+i+g+2+V }+g+k+g+g+g+j+z.R b+2+*.& / Z.|+|+_+B.0.:.&.J F }.H.H.J.;.5             ",
"                5 6 w.b+g+g+g+g+j+=+V 6+j+g+g+g+k+k+2...]+x & & - / / / q w F J &.4.v.F.H.H.H.:.6             ",
"              9 6 c.b+g+g+k+g+g+g+Y.V b+g+k+j+j+j+e+'.C 4 & | [.Q.$+$+k.f.i.r.C.H.H.J.J.J.H.J.4.6 9           ",
"              6 %.9+g+g+g+g+j+g+j+I.X i+g+g+k+k+j+9+N - & [.|+g+g+g+^+H.H.H.H.J.J.J.H.J.H.H.H.f.6 9           ",
"            6 q {+k+k+b+g+g+g+g+i+m.X k+j+k+j+j+e+u.' ~ o.{+h.7+]+f a.C.v.F.F.H.J.J.H.J.H.H.H.i.e 9           ",
"          9 7 w.g+k+b+2.0+g+g+g+k+c.X k+g+i+j+b+8.% / Q.g+;+L |+_+*.q.:.J }.C.H.J.J.H.G.H.H.J.i.k 9           ",
"          6 O 6+j+k+}+R b+g+j+g+k+c.V i+g+k+7+).- / T.e+k+g+9+g+g+g+0+Y.H v ~.H.J.J.H.v.i.H.H.p.o 6           ",
"        9 6 I.i+g+j+~+v 9+k+g+g+j+c.V b+g+7+@.& { < a a 4 ).7+g+g+g+g+g+%+H v :.4.~.W F ^.C.H.r.o 5           ",
"        6 q 2+i+k+k+#+w 7+g+g+g+i+m.R 6+2+@.& j (+c+c+4+(+9.).b+g+g+g+%+c.R v v J  .}.p.H.H.J.r.o 5           ",
"        6 c.g+i+k+g+ +v |+j+j+j+i+s.H =+@.& t 1+t+t+t+t+t+n+>.8.e+g+j+%+z.R.c.w ~.H.F.F.H.J.H.r.o 5           ",
"      9 6 Y.j+g+k+j+ +w _+g+j+g+i+I.v x & t 4+t+t+t+t+t+t+t+c+I o.|+6+b+b+b+=+A S D.F.F.F.J.F.p.k 9           ",
"      b e }+g+g+k+k+%+w =+g+g+j+i+W._ & ; *+t+t+t+t+t+t+t+t+t+@+! h 3 < | f z v F r.F.F.F.H.H.i.g 9           ",
"      5 Y 9+g+g+g+k+~+v Y.g+g+g+g+o.& < D Z n+t+t+t+t+t+t+t+p+>.N.f+a+5+5+[+[+` v p.F.G.H.J.F.d.6 b           ",
"      5 ].0+g+i+k+j+}+H s.k+j+k+Z.^ ! `.h+I 9.s+t+t+t+t+t+t+U.Z h+q+r+r+q+q+r+=.r p.F.F.F.F.H.}.6 b           ",
"      6 |.g+j+k+k+g+6+X '.i+g+_+4 & l.t+t+4+j M.d+h+n+p+s+4+j /+r+r+r+q+r+q+q+` B p.H.D.F.F.H.&.6             ",
"      5 6.i+j+g+g+g+g+/.V 6+b+*.& Z m+t+t+t+`.; 3 j D I Z h <.r+r+r+r+r+r+r+a+K B ^.&.~.H.H.A.M 7             ",
"      6 |.g+g+g+g+g+g+z.w =+L.- < 4+t+t+t+s+9.l.c+4+[+(+-+g.Q h+r+r+r+r+q+r+,+w w J }.A.F.F.p.e 9             ",
"      6 ].b+g+k+g+g+g+#+v |.4 - U.t+t+t+t+(+t d+t+t+t+t+t+s+>.l.r+r+r+r+q+r+x.v :.D.F.F.F.F.:.6 b             ",
"      5 Y 9+g+g+g+g+g+2+A : % j c+p+t+t+s+#.U.t+t+t+t+t+t+t+c+t *+r+r+r+r+f+` F v.F.F.F.F.C.M 6               ",
"      9 g _+g+g+g+j+g+g+-.* ! < 0 h j D j t n+t+t+t+t+t+t+t+t+-+3 N.*+!+/+x.r ^.F.F.D.F.D.f.e e               ",
"      b 6 W.g+g+g+g+g+b+@.% g.n+c+4+1+!+M.h c+t+t+t+t+t+t+t+t+1+< #.>.Z c r S A.F.D.F.F.A.W 6                 ",
"        e ].g+g+g+j+g+#+! < 4+t+t+t+t+t+t+l.9.s+t+t+t+t+t+t+m+>.M.p+t+d+` w f.F.J.G.G.F.4.e 9                 ",
"        9 o =+g+g+g+g+).& g.t+t+t+t+t+t+t+d+h (+t+t+t+t+t+t+E.<.p+t+d+,.v 4.D.i.!.O p s [ [                   ",
"          e ].b+g+g+{+( ! 1+t+t+t+t+t+t+t+t+U.Q @+-+(+1+4+@+D d+t+[+=.v :.i.O * $ $ $ $ $ % - ,               ",
"          g k I.g+j+o.& - t.p+t+t+t+t+t+t+t+E.y <.>.Z y 0 - E.m+O.K B 4.1._ * & & & $ * $ & $ $ =             ",
"            g v Y.6+z * !.1 *+t+t+t+t+t+t+1+0 4+t+p+p+p+n+E.E ` v S i.3.) * & $ $ $ & $ * & & & * =           ",
"              k r b.% _ D.d.d 1+p+s+t+t+s+Z U.t+t+m+d+,+j.K r J }.C.p._ $ ] T l + & * $ * ] T 2 $ $ '         ",
"                k : % V F.F.3.E U ,.(.e.(.i j.n.5.=.B r w  .4.v.H.F.X $ $.z+C+C+o+] $ $ {.z+C+B+X.& $         ",
"                  ) & 0.F.F.J.A.r.d.:.;. .S B w v J ;.4.r.D.F.F.J.r.^ # z+E+w+B+F+y.$ ] z+E+u+B+D+G $ @       ",
"                  & _ p.F.D.F.F.G.G.F.F.J.F.J.r.^.S 0.C.F.F.F.F.F.3.* $ 8+<+# .+G+<+$ {.F+u+& S.F+&+$ -       ",
"                ' & } M ;.f.A.F.F.F.J.F.J.G.H.H.J.r.:.~.F.D.F.F.F.!.& $ # + % w+F+y.$ y.G+.+& +.E+o+# $       ",
"                - ) e m k m F ~.p.D.F.F.F.G.F.F.J.F.J.C.J.F.J.J.C...& $ * & <+F+y+] $ S.G+S.& G D+v+# $       ",
"              > & : m     k m k m  .}.p.D.F.F.F.J.F.H.J.F.F.A.i.~.} $ * % &+F+A+l $ * y.G+.+* {.E+o+# $       ",
"              - - e i         n o m m r S &.:.0.f.f.f.0.:.&.J m m } $ $ S.E+A+G . + $.7.E+w++ )+F+.+$ -       ",
"            > & : k                 q o o m m m m m r m m r o r     - + B+G+C+B+B+8+C+x+y+F+A+E+B+2 $ =       ",
"            * ) e n                           o q o o v             @ $ u+x+x+x+x+X.v+&+G v+A+y+{.* $         ",
"          - * [ m                                                     % + . . . . # + # & . . . $ $ =         ",
"          * ) g o                                                       $ $ % & * & $ $ * $ * * * *           ",
"          = } m                                                         @ & & & # * $ $ & * * $ %             ",
"            i n                                                             @ * $ $ $ $ $ & & '               ",
"                                                                                = = { = ' '                   "};
