<?xml version="1.0" encoding="UTF-8" standalone="no"?>
<!-- Created with Inkscape (http://www.inkscape.org/) -->

<svg
   width="181.76875mm"
   height="183.35625mm"
   viewBox="0 0 181.76875 183.35625"
   version="1.1"
   id="svg1"
   xml:space="preserve"
   inkscape:version="1.3 (0e150ed6c4, 2023-07-21)"
   sodipodi:docname="Zweite.svg"
   xmlns:inkscape="http://www.inkscape.org/namespaces/inkscape"
   xmlns:sodipodi="http://sodipodi.sourceforge.net/DTD/sodipodi-0.dtd"
   xmlns="http://www.w3.org/2000/svg"
   xmlns:svg="http://www.w3.org/2000/svg"><sodipodi:namedview
     id="namedview1"
     pagecolor="#ffffff"
     bordercolor="#000000"
     borderopacity="0.25"
     inkscape:showpageshadow="2"
     inkscape:pageopacity="0.0"
     inkscape:pagecheckerboard="0"
     inkscape:deskcolor="#d1d1d1"
     inkscape:document-units="mm"
     inkscape:zoom="2.87211"
     inkscape:cx="277.14816"
     inkscape:cy="358.44727"
     inkscape:window-width="1920"
     inkscape:window-height="1009"
     inkscape:window-x="-8"
     inkscape:window-y="-8"
     inkscape:window-maximized="1"
     inkscape:current-layer="layer1"
     showgrid="false" /><defs
     id="defs1" /><g
     inkscape:label="Ebene 1"
     inkscape:groupmode="layer"
     id="layer1"
     transform="translate(87.067757,-32.024025)"><path
       style="fill:none;stroke:#000000;stroke-width:0.264583px;stroke-linecap:butt;stroke-linejoin:miter;stroke-opacity:1"
       d="m -10.10017,119.12499 1.8424313,24.36616 1.7042494,0.13818 0.1842432,5.66548 -9.1200369,-3.68487 -0.276365,-3.04001 2.671525,-5.66548 -7.185483,-16.99643 z"
       id="path4" /><path
       style="fill:none;stroke:#000000;stroke-width:0.264583px;stroke-linecap:butt;stroke-linejoin:miter;stroke-opacity:1"
       d="m 3.9325414,111.42944 -7.0350988,5.92772 -4.2340851,-18.174002 6.1231411,2.149612 z"
       id="path7" /><path
       style="fill:none;stroke:#000000;stroke-width:0.264583px;stroke-linecap:butt;stroke-linejoin:miter;stroke-opacity:1"
       d="m -9.9619881,119.07893 -6.6327539,-22.38555 -11.5152,8.29094 7.922456,14.73946 z"
       id="path10" /><path
       style="fill:none;stroke:#000000;stroke-width:0.264583px;stroke-linecap:butt;stroke-linejoin:miter;stroke-opacity:1"
       d="m -12.265028,95.495798 8.1988211,-9.212159 7.7382138,8.567309 -4.9745657,6.540632 -10.4097392,-4.145471 z"
       id="path11" /><path
       style="fill:none;stroke:#000000;stroke-width:0.264583px;stroke-linecap:butt;stroke-linejoin:miter;stroke-opacity:1"
       d="m -2.776506,117.23649 2.67152695,11.69945 7.83033585,3.68486 8.4751862,-8.29094 -5.066687,-10.87035 -7.2776059,-1.93455 z"
       id="path12" /><path
       style="fill:none;stroke:#000000;stroke-width:0.264583px;stroke-linecap:butt;stroke-linejoin:miter;stroke-opacity:1"
       d="m 7.8174766,132.71292 8.1067014,8.19882 -5.343052,8.19882 -7.9224566,-2.5794 0.5527296,-3.59274 -3.13213401,-14.09461 z"
       id="path13" /><path
       style="fill:none;stroke:#000000;stroke-width:0.264583px;stroke-linecap:butt;stroke-linejoin:miter;stroke-opacity:1"
       d="m -6.4613687,143.3069 9.5806444,-0.36848 -1.0133358,6.17214 -5.2509305,1.93456 -3.2242555,-2.02668 z"
       id="path14" /><path
       style="fill:none;stroke:#000000;stroke-width:0.264583px;stroke-linecap:butt;stroke-linejoin:miter;stroke-opacity:1"
       d="m -16.594744,96.509137 -3.132134,-10.225498 -7.64609,-3.592741 -5.987903,8.659429 0.829094,9.304283 5.158809,3.68486"
       id="path15" /><path
       style="fill:none;stroke:#000000;stroke-width:0.264583px;stroke-linecap:butt;stroke-linejoin:miter;stroke-opacity:1"
       d="m -17.884444,91.995178 -1.842434,-5.803661 5.895783,-6.44851 7.3697273,2.579405 1.9345533,4.05335 -7.7382136,9.027915 z"
       id="path16" /><path
       style="fill:none;stroke:#000000;stroke-width:0.264583px;stroke-linecap:butt;stroke-linejoin:miter;stroke-opacity:1"
       d="m -17.700202,92.179421 7.7382133,27.175869 7.0933629,-2.02667 -4.5139578,-18.608565 -4.6982014,-1.473946 -0.552729,-2.026675 z"
       id="path17" /><path
       style="fill:none;stroke:#000000;stroke-width:0.264583px;stroke-linecap:butt;stroke-linejoin:miter;stroke-opacity:1"
       d="m -10.054111,119.44741 1.750311,23.95161 11.3309558,-0.4606 -5.9879032,-25.51768 z"
       id="path18" /></g></svg>
