/* XPM */
static char * cwi_xpm[] = {
"61 61 555 2",
"  	c None",
". 	c #FFFFFF",
"+ 	c #FFFCFC",
"@ 	c #FDEEEF",
"# 	c #FCE4E6",
"$ 	c #FBDFE2",
"% 	c #FEF4F5",
"& 	c #FDE9EB",
"* 	c #F6B3BA",
"= 	c #F07E8A",
"- 	c #EB5363",
"; 	c #E94355",
"> 	c #E94052",
", 	c #E93F52",
"' 	c #E62535",
") 	c #F49FA9",
"! 	c #FEF9FA",
"~ 	c #F6B1B8",
"{ 	c #EC5967",
"] 	c #E83B4B",
"^ 	c #EB5564",
"/ 	c #F18690",
"( 	c #F7BBC2",
"_ 	c #FBDCDF",
": 	c #FDEFF1",
"< 	c #FEF8F9",
"[ 	c #F07C89",
"} 	c #F3929D",
"| 	c #FEF5F6",
"1 	c #F397A0",
"2 	c #E93E4D",
"3 	c #EA4F5D",
"4 	c #F5A5AD",
"5 	c #FDEBED",
"6 	c #F28894",
"7 	c #E62736",
"8 	c #EB5163",
"9 	c #ED5F6E",
"0 	c #F07A86",
"a 	c #F5AAB2",
"b 	c #FBD9DC",
"c 	c #F6B4BB",
"d 	c #E83949",
"e 	c #EB5563",
"f 	c #F8C6CB",
"g 	c #F28895",
"h 	c #EF717D",
"i 	c #F8C4CA",
"j 	c #F5AAB3",
"k 	c #F28C96",
"l 	c #EC5F6D",
"m 	c #E93F50",
"n 	c #E94253",
"o 	c #EF7782",
"p 	c #F9CDD2",
"q 	c #FDEDEF",
"r 	c #ED606E",
"s 	c #E93E4E",
"t 	c #F7BEC4",
"u 	c #FDEEF0",
"v 	c #F9CFD3",
"w 	c #F6B1B9",
"x 	c #F396A1",
"y 	c #E94251",
"z 	c #F3939F",
"A 	c #FFFBFB",
"B 	c #FAD0D4",
"C 	c #F18A93",
"D 	c #EA4A59",
"E 	c #F9CED3",
"F 	c #E83448",
"G 	c #EF7380",
"H 	c #FEF7F8",
"I 	c #F2919B",
"J 	c #EB5462",
"K 	c #E8374A",
"L 	c #E94154",
"M 	c #EC5B6B",
"N 	c #EF7281",
"O 	c #F07F87",
"P 	c #FACFD4",
"Q 	c #E94150",
"R 	c #EB505E",
"S 	c #F9CED2",
"T 	c #F7B7BE",
"U 	c #E6243A",
"V 	c #F5ABB3",
"W 	c #F8C5CA",
"X 	c #EC5C69",
"Y 	c #E83747",
"Z 	c #EE6975",
"` 	c #F7B6BC",
" .	c #FCE7E9",
"..	c #FFFDFE",
"+.	c #F49DA6",
"@.	c #E72E41",
"#.	c #F28B96",
"$.	c #FFFEFE",
"%.	c #F6AFB7",
"&.	c #E72C42",
"*.	c #FBDEE2",
"=.	c #EC5C6A",
"-.	c #F398A1",
";.	c #FDF1F2",
">.	c #FCE3E6",
",.	c #EA4D5E",
"'.	c #EC5869",
").	c #FDF1F3",
"!.	c #F8C1C8",
"~.	c #F49EA7",
"{.	c #E72B3F",
"].	c #F18893",
"^.	c #FEF6F7",
"/.	c #EF7381",
"(.	c #FCE6E9",
"_.	c #E7293F",
":.	c #F7BDC3",
"<.	c #FFFDFD",
"[.	c #EF707F",
"}.	c #E8384B",
"|.	c #F1808D",
"1.	c #E8394D",
"2.	c #FDEFF0",
"3.	c #E94054",
"4.	c #F398A2",
"5.	c #FEFAFB",
"6.	c #EC5B6C",
"7.	c #EB4F61",
"8.	c #F07E8B",
"9.	c #EA4759",
"0.	c #F18491",
"a.	c #ED6575",
"b.	c #EB5364",
"c.	c #FEFAFA",
"d.	c #EC5C6C",
"e.	c #FAD7DB",
"f.	c #E72A40",
"g.	c #FCE5E8",
"h.	c #E94356",
"i.	c #FEF3F4",
"j.	c #E83348",
"k.	c #F7B4BC",
"l.	c #EC596A",
"m.	c #F28F9A",
"n.	c #F8C3C9",
"o.	c #FCE8EA",
"p.	c #F8C2C9",
"q.	c #E72E44",
"r.	c #FEF2F3",
"s.	c #E83449",
"t.	c #E83549",
"u.	c #F6B4BC",
"v.	c #ED6373",
"w.	c #F18591",
"x.	c #EE6777",
"y.	c #F2909C",
"z.	c #F28E99",
"A.	c #EC5768",
"B.	c #FBDDE0",
"C.	c #E72F44",
"D.	c #FDECEE",
"E.	c #FDE8EA",
"F.	c #FDF0F2",
"G.	c #E83247",
"H.	c #FBD8DC",
"I.	c #ED5F70",
"J.	c #F3909B",
"K.	c #F5A3AD",
"L.	c #EC5C6D",
"M.	c #F49BA6",
"N.	c #EDECED",
"O.	c #BBBABB",
"P.	c #9D9C9E",
"Q.	c #8D8C8E",
"R.	c #8F8D8F",
"S.	c #D6D6D6",
"T.	c #EBEAEB",
"U.	c #DCDCDC",
"V.	c #DDDDDE",
"W.	c #DDDCDD",
"X.	c #E3E3E3",
"Y.	c #FEFEFE",
"Z.	c #EFEFEF",
"`.	c #DCDBDC",
" +	c #E4E4E4",
".+	c #ECEBEC",
"++	c #DDDDDD",
"@+	c #DFDFDF",
"#+	c #F1F1F1",
"$+	c #E0DFE0",
"%+	c #FCFCFC",
"&+	c #EA4155",
"*+	c #F5A3AC",
"=+	c #B6B5B6",
"-+	c #322F33",
";+	c #131014",
">+	c #100D11",
",+	c #060307",
"'+	c #9F9E9F",
")+	c #878588",
"!+	c #171518",
"~+	c #201E21",
"{+	c #1B171C",
"]+	c #4F4D50",
"^+	c #FDFDFD",
"/+	c #6B696B",
"(+	c #181519",
"_+	c #1B181C",
":+	c #4E4B4E",
"<+	c #545154",
"[+	c #1A171B",
"}+	c #211E21",
"|+	c #5C5A5C",
"1+	c #9A999A",
"2+	c #1C191D",
"3+	c #434144",
"4+	c #F9F9F9",
"5+	c #E93C50",
"6+	c #FAD3D8",
"7+	c #E93B4F",
"8+	c #FCE0E3",
"9+	c #FBDCE0",
"0+	c #E8364B",
"a+	c #B5B4B6",
"b+	c #19171A",
"c+	c #151216",
"d+	c #18151A",
"e+	c #B3B2B3",
"f+	c #999799",
"g+	c #0F0C10",
"h+	c #19161A",
"i+	c #120E13",
"j+	c #585659",
"k+	c #EAEAEA",
"l+	c #2A272B",
"m+	c #171418",
"n+	c #484548",
"o+	c #DAD9DA",
"p+	c #1E1B1F",
"q+	c #181419",
"r+	c #AAA8AA",
"s+	c #727073",
"t+	c #110D12",
"u+	c #605E61",
"v+	c #EF717F",
"w+	c #F28A97",
"x+	c #FAD5D9",
"y+	c #E93D50",
"z+	c #FFFCFD",
"A+	c #E6E6E6",
"B+	c #2F2C30",
"C+	c #141115",
"D+	c #232024",
"E+	c #B9B8B9",
"F+	c #ABAAAB",
"G+	c #110E12",
"H+	c #130F14",
"I+	c #59575A",
"J+	c #AEADAE",
"K+	c #494649",
"L+	c #9A999B",
"M+	c #E7E7E7",
"N+	c #424043",
"O+	c #898789",
"P+	c #F6AEB7",
"Q+	c #EC5868",
"R+	c #EE6E7D",
"S+	c #F395A0",
"T+	c #7B797B",
"U+	c #1D1A1E",
"V+	c #969597",
"W+	c #E1E0E1",
"X+	c #D8D7D8",
"Y+	c #EEEEEE",
"Z+	c #120F13",
"`+	c #636164",
" @	c #615F61",
".@	c #49464A",
"+@	c #5B595C",
"@@	c #787779",
"#@	c #262327",
"$@	c #A9A8AA",
"%@	c #FBD9DD",
"&@	c #E93E52",
"*@	c #F28F9B",
"=@	c #EF7583",
"-@	c #F7BCC3",
";@	c #ECECEC",
">@	c #9B999B",
",@	c #C6C5C6",
"'@	c #747274",
")@	c #29262A",
"!@	c #4C494C",
"~@	c #E8E8E8",
"{@	c #CFCECF",
"]@	c #C8C8C9",
"^@	c #161317",
"/@	c #C9C8C9",
"(@	c #FDF0F1",
"_@	c #E8394E",
":@	c #FDEBEE",
"<@	c #F07987",
"[@	c #F28E9A",
"}@	c #EA4558",
"|@	c #FAD6DA",
"1@	c #B4B4B4",
"2@	c #444245",
"3@	c #D2D1D2",
"4@	c #818082",
"5@	c #AEADAF",
"6@	c #100C11",
"7@	c #282528",
"8@	c #383538",
"9@	c #514E51",
"0@	c #B4B3B4",
"a@	c #141015",
"b@	c #4A474A",
"c@	c #929193",
"d@	c #282529",
"e@	c #EA4356",
"f@	c #FBDADF",
"g@	c #EE6F7C",
"h@	c #F8C5CB",
"i@	c #F9C9CF",
"j@	c #F8C0C5",
"k@	c #E72D42",
"l@	c #FBE0E3",
"m@	c #848284",
"n@	c #8C8A8C",
"o@	c #221F23",
"p@	c #848385",
"q@	c #0C090D",
"r@	c #5C5A5D",
"s@	c #626063",
"t@	c #0D0A0E",
"u@	c #535154",
"v@	c #807E80",
"w@	c #676567",
"x@	c #3C393D",
"y@	c #F8F8F8",
"z@	c #EA4A5C",
"A@	c #FAD4D9",
"B@	c #F5A6B0",
"C@	c #EB515C",
"D@	c #E93F53",
"E@	c #E51930",
"F@	c #EB5161",
"G@	c #ED5C6C",
"H@	c #676467",
"I@	c #BAB9BA",
"J@	c #151116",
"K@	c #686669",
"L@	c #2B282C",
"M@	c #9F9EA0",
"N@	c #666467",
"O@	c #0E0B0F",
"P@	c #444144",
"Q@	c #151217",
"R@	c #E6E6E7",
"S@	c #FBFBFB",
"T@	c #413F42",
"U@	c #F0808D",
"V@	c #E94552",
"W@	c #E4132B",
"X@	c #E8384A",
"Y@	c #EB5263",
"Z@	c #FACCD0",
"`@	c #EB5062",
" #	c #5F5C5F",
".#	c #120F14",
"+#	c #F2F2F2",
"@#	c #333134",
"##	c #272428",
"$#	c #DEDEDF",
"%#	c #6C6A6C",
"&#	c #6C696C",
"*#	c #252226",
"=#	c #787679",
"-#	c #EA4659",
";#	c #E0000B",
">#	c #E20018",
",#	c #E10011",
"'#	c #E30A22",
")#	c #FAD3D7",
"!#	c #EA4357",
"~#	c #626062",
"{#	c #8A898B",
"]#	c #3D3B3E",
"^#	c #6D6B6E",
"/#	c #BEBDBF",
"(#	c #C3C2C3",
"_#	c #9E9C9E",
":#	c #E9384C",
"<#	c #E10014",
"[#	c #E2001A",
"}#	c #E20017",
"|#	c #E8384D",
"1#	c #FDF2F4",
"2#	c #868587",
"3#	c #B3B2B4",
"4#	c #828183",
"5#	c #F6F6F7",
"6#	c #4D4A4D",
"7#	c #888789",
"8#	c #6C6A6D",
"9#	c #9B9A9C",
"0#	c #BFBEBF",
"a#	c #E61F36",
"b#	c #E20016",
"c#	c #E10015",
"d#	c #E73045",
"e#	c #FFFBFC",
"f#	c #FAD6DB",
"g#	c #C5C5C5",
"h#	c #292629",
"i#	c #F5F5F5",
"j#	c #CCCBCC",
"k#	c #6F6D70",
"l#	c #908F91",
"m#	c #D7D6D7",
"n#	c #E3061E",
"o#	c #E20019",
"p#	c #E10012",
"q#	c #EC5162",
"r#	c #ED5F6F",
"s#	c #F5A5AF",
"t#	c #211E22",
"u#	c #E7E6E7",
"v#	c #6A686B",
"w#	c #3C3A3D",
"x#	c #F6F6F6",
"y#	c #777578",
"z#	c #DEDEDE",
"A#	c #464347",
"B#	c #302D31",
"C#	c #F0EFF0",
"D#	c #E10010",
"E#	c #F1818E",
"F#	c #F49BA5",
"G#	c #ED6070",
"H#	c #5A585B",
"I#	c #242125",
"J#	c #757376",
"K#	c #09050A",
"L#	c #080509",
"M#	c #757375",
"N#	c #0A070B",
"O#	c #0F0B10",
"P#	c #0B070C",
"Q#	c #413E42",
"R#	c #EC5A6B",
"S#	c #F7B8BF",
"T#	c #FBDFE3",
"U#	c #E8354A",
"V#	c #B1B0B2",
"W#	c #716F71",
"X#	c #5D5B5D",
"Y#	c #696769",
"Z#	c #B4B3B5",
"`#	c #E0E0E0",
" $	c #A8A7A8",
".$	c #575558",
"+$	c #5D5B5E",
"@$	c #585658",
"#$	c #5F5D60",
"$$	c #5A585A",
"%$	c #767476",
"&$	c #716F72",
"*$	c #727072",
"=$	c #9C9A9C",
"-$	c #E41129",
";$	c #E5152D",
">$	c #FDEAED",
",$	c #EB4D5F",
"'$	c #F6AAB2",
")$	c #F28D99",
"!$	c #F6ADB5",
"~$	c #EA475A",
"{$	c #E62238",
"]$	c #E10016",
"^$	c #F6B3BB",
"/$	c #F7BFC5",
"($	c #F5A8B1",
"_$	c #E40F24",
":$	c #EA485B",
"<$	c #FFFAFB",
"[$	c #E94053",
"}$	c #E6253B",
"|$	c #EE6B7B",
"1$	c #E20216",
"2$	c #F4A0AA",
"3$	c #F18390",
"4$	c #ED6272",
"5$	c #EF7886",
"6$	c #EA495B",
"7$	c #EE6F7D",
"8$	c #EE6B7A",
"9$	c #EB4B5D",
"0$	c #FEF1F3",
"a$	c #FBDDE1",
"b$	c #E51A2E",
"c$	c #FAD2D7",
"d$	c #EF7684",
"e$	c #F39BA4",
"f$	c #E51B2F",
"g$	c #E31125",
"h$	c #E6293D",
"i$	c #F4A0A8",
"j$	c #F6B0B7",
"k$	c #E93E4F",
"l$	c #E10013",
"m$	c #E4162A",
"n$	c #FAD2D6",
"o$	c #E94656",
"p$	c #F1808C",
"q$	c #E72A3E",
"r$	c #E62A3D",
"s$	c #E73344",
"t$	c #EC5D69",
"u$	c #F8C1C6",
"v$	c #EE6A78",
"w$	c #E51F34",
"x$	c #E2011A",
"y$	c #EC5B6A",
"z$	c #FDEAEC",
"A$	c #F399A1",
"B$	c #E94654",
"C$	c #F07D88",
"D$	c #F8BFC5",
"E$	c #E1000F",
"F$	c #E62337",
"G$	c #F5A4AC",
"H$	c #FFFEFF",
"I$	c #F9CDD1",
"J$	c #F1848F",
"K$	c #EA4D5D",
"L$	c #E93D4F",
"M$	c #EA4658",
"N$	c #E2041D",
"O$	c #E51C30",
"P$	c #F1838E",
"Q$	c #FAD1D6",
"R$	c #F49FA8",
"S$	c #E3041E",
"T$	c #E3071F",
"U$	c #E93C4E",
"V$	c #F397A1",
"W$	c #FCE8EB",
"X$	c #E3051E",
"Y$	c #E20015",
"Z$	c #E2031C",
"`$	c #E4132A",
" %	c #E72A3F",
".%	c #EC5666",
"+%	c #F3949E",
". . . . . . . . . . . . . . . . . . . . . . . . . . . . . . . . . . . . . . . . . . . . . . . . . . . . . . . . . . . . . ",
". . . . . . . . . . . . . . . . . . . . . . . . . . . . . . . . . . . . . . . . . . . . . . . . . . . . . . . . . . . . . ",
". . . . . . . . . . . . . . . . . . . . . . . . . . . . . . . . . . . . . . . . . . . . . . . . . . . . . . . . . . . . . ",
". . . . . . . . . . . . . . . . . . . . . . . . . . + @ # $ % . . . . . . . . . . . . . . . . . . . . . . . . . . . . . . ",
". . . . . . . . . . . . . . . . . . . . . . & * = - ; > , ' ) . . . . . . . . . . . . . . . . . . . . . . . . . . . . . . ",
". . . . . . . . . . . . . . . . . . . ! ~ { ] ^ / ( _ : < [ } . . . . . . . . . . . . . . . . . . . . . . . . . . . . . . ",
". . . . . . . . . . . . . . . . . | 1 2 3 4 5 . . . . . . 6 7 8 9 0 a b + . . . . . . . . . . . . . . . . . . . . . . . . ",
". . . . . . . . . . . . . . . . c d e f . . . . . . . . . g h i j k l m n o p . . . . . . . . . . . . . . . . . . . . . . ",
". . . . . . . . . . . . . . q r s t . . . . . . . u v w x y z . . . . A B C s D c . . . . . . . . . . . . . . . . . . . . ",
". . . . . . . . . . . . . E F G H . . . . . _ I J K L M N O P . . . . . . . ! a Q R S . . . . . . . . . . . . . . . . . . ",
". . . . . . . . . . . . T U V . . . . . W X Y Z `  .. . . . . . . . . . . . . . ..+.@.#.$.. . . . . . . . . . . . . . . . ",
". . . . . . . . . . . %.&.i . . . . *.=.Y -.;.. . . . . . . . . . . . . . . . . . . >.,.'.).. . . . . . . . . . . . . . . ",
". . . . . . . . . . !.U P . . . . ~.{.].^.. . . . . . . . . . . . . . . . . . . . . . $./.L (.. . . . . . . . . . . . . . ",
". . . . . . . . . $ _.:.. . . <.[.}.P . . . . . . . . . . . . . . . . . . . . . . . . . . |.1.2.. . . . . . . . . . . . . ",
". . . . . . . . ! 3.4.. . . 5.6.7.;.. . . . . . . . . . . . . . . . . . . . . . . . . . . . 8.9.H . . . . . . . . . . . . ",
". . . . . . . . 0.'.. . . . a.b.c.. . . . . . . . . . . . . . . . . . . . . . . . . . . . . . d./.. . . . . . . . . . . . ",
". . . . . . . e.f.g.. . . 0.h.H . . . . . . . . . . . . . . . . . . . . . . . . . . . . . . . i.j.k.. . . . . . . . . . . ",
". . . . . . . l.m.. . . n._.o.. . . . . . . . . . . . . . . . . . . . . . . . . . . . . . . . . p.q.r.. . . . . . . . . . ",
". . . . . . E s.% . . % t.u.. . . . . . . . . . . . . . . . . . . . . . . . . . . . . . . . . . . v.w.. . . . . . . . . . ",
". . . . . . x.y.. . . z.A.. . . . . . . . . . . . . . . . . . . . . . . . . . . . . . . . . . . . B.C.D.. . . . . . . . . ",
". . . . . 5 j.E.. . F.G.H.. . . . . . . . . . . . . . . . . . . . . . . . . . . . . . . . . . . . . I.J.. . . . . . . . . ",
". . . . . K.L.. . . M.l.. . . . . N.O.P.Q.R.S.T.U.V.W.X.Y.. Z.`.W. +. . .+`.V.++@+#+W.V.++$+%+. . . i &++ . . . . . . . . ",
". . . . . 6.*+. . $.h.( . . . . =+-+;+>+>+,+'+)+!+~+{+]+^+. /+(+_+:+. ^+<+[+}+[+|+1+(+~+2+3+4+. . . A 5+6+. . . . . . . . ",
". . . . ^.7+8+. . 9+0+^.. . . a+b+c+[+[+d+>+e+f+g+h+i+j+. k+l+m+;+n+. o+p+q+h+>+r+s+>+h+t+u+. . . . . v+w+. . . . . . . . ",
". . . . x+y+z+. . ) d.. . . A+B+c+[+(+C+D+m+E+F+G+[+H+I+. J+;+[+C+K+. L+G+[+m+B+M+N+c+[+>+O+. . . . . P+Q+. . . . . . . . ",
". . . . %.'.. . . R+S+. . . T+g+[+(+U+V+W+X+Y+=+Z+[+i+`+.  @i+[+C+.@. +@H+[+>+@@N.#@(+[+G+$@. . . . . %@&@+ . . . . . . . ",
". . . . *@=@. . . 8 -@. . ;@B+m+[+;+>@. . . . ,@m+h+G+'@Z.)@m+(+C+!@~@l+(+h+(+{@]@^@[+[+(+/@. . . . . (@_@:@. . . . . . . ",
". . . . <@[@. . . }@|@. . 1@;+[+c+2@4+. . . . 3@_+h+>+4@5@6@7@8@G+9@0@a@[+C+b@. c@>+[+(+d@A+. . . . . + e@f@. . . . . . . ",
". . . . <@g@h@i@j@k@l@. . m@>+[+>+n@. . . . . @+o@(+>+p@ @q@r@s@t@u@v@t+[+>+1+. w@Z+[+^@x@y@. . . . . . z@A@. . . . . . . ",
". . . . B@C@D@E@F@G@@ . . H@Z+[+;+I@. . . . . ~@)@(+J@K@L@g+M@N@O@P@P@Q@(+d@R@S@T@c+[+;+I+. . . . . U@V@W@X@Y@u . . . . . ",
". . . . . . Z@`@. . . . .  #.#[+;+E+. . . . . +#@#m+[+##(+p+$#%#G+U+_+[+G+&#.  +*#h+[+>+=#. . . . . -#;#>#,#'#g.. . . . . ",
". . . . . . )#!#<.. . . . ~#Z+[+>+{#. . . . . 4+]#^@[+(+C+K+. ^#G+h+[+[+c+/#. (#^@[+[+>+_#. . . . $.:#<#[#}#E@u . . . . . ",
". . . . . . o.|#1#. . . . 2#>+[+m+L@(#+#R@3#4#5#6#C+[+[+>+7#. 8#G+[+[+c+T@y@. 9#G+[+[+c+0#. . . . i.a#b#[#c#d#e#. . . . . ",
". . . . . . 5.&@f#. . . . g#c+h+[+m+U+@#h#G+l+i#j+;+[+h+(+j#. k#G+[+[+>+l#. . k#G+[+h+p+m#. . . . A@n#o#[#p#q#. . . . . . ",
". . . . . . . r#s#. . . . S@s@O@[+[+h+m+(+h+t#u#v#i+[+^@w#x#. y#G+[+(+D+z#. %+A#C+[+m+B#C#. . . . ~.,#[#[#D#E#. . . . . . ",
". . . . . . . F#G#. . . . . ;@H#G+>+Z+G+>+;+I#`.J#K#Z+L#y#. . M#K#Z+N#H#. . ~@t#O#G+P#Q#^+. . . . R#,#[#[#<#S#. . . . . . ",
". . . . . . . T#U#i.. . . . . S@V#W#X#Y#m@Z#`#^+ $.$+$+@j#. . r+@$#$$$=+. . k+%$&$*$^#=$. . . . (.-$>#[#}#;$>$. . . . . . ",
". . . . . . . . ,$'$. . . . . . . . . . . . . . . . . . . . . . . . . . . . . . . . . . . . . . )$,#[#[#,#A.. . . . . . . ",
". . . . . . . . !$~$. . . . . . . . . . . . . . . . . . . . . . . . . . . . . . . . . . . . . 2.{$]$[#[#<#^$. . . . . . . ",
". . . . . . . . ! 5+/$. . . . . . . . . . . . . . . . . . . . . . . . . . . . . . . . . . . . 0.D#[#[#<#&.< . . . . . . . ",
". . . . . . . . . ($5+z+. . . . . . . . . . . . . . . . . . . . . . . . . . . . . . . . . . )#_$>#[#[#p#~.. . . . . . . . ",
". . . . . . . . . <.:$x . . . . . . . . . . . . . . . . . . . . . . . . . . . . . . . . . <$[$p#[#[#<#f.% . . . . . . . . ",
". . . . . . . . . . x+}$)#. . . . . . . . . . . . . . . . . . . . . . . . . . . . . . . . |$p#[#[#o#1$w . . . . . . . . . ",
". . . . . . . . . . . 2$G.@ . . . . . . . . . . . . . . . . . . . . . . . . . . . . . . 3$p#o#[#[#D#4$. . . . . . . . . . ",
". . . . . . . . . . . . 5$6$< . . . . . . . . . . . . . . . . . . . . . . . . . . . 5.7$c#o#[#[#p#k@q . . . . . . . . . . ",
". . . . . . . . . . . . . 8$9$0$. . . . . . . . . . . . . . . . . . . . . . . . . a$,.,#o#[#[#<#b$c$. . . . . . . . . . . ",
". . . . . . . . . . . . . $.d$K x+. . . . . . . . . . . . . . . . . . . . . . e#e$f$,#[#[#[#c#g$p.. . . . . . . . . . . . ",
". . . . . . . . . . . . . . . +.h$i$. . . . . . . . . . . . . . . . . . . | j$k$l$b#[#[#[#l$m$-@. . . . . . . . . . . . . ",
". . . . . . . . . . . . . . . . n$o$R S . . . . . . . . . . . . . . ;.f p$q$c#l$[#[#[#[#,#r$P . . . . . . . . . . . . . . ",
". . . . . . . . . . . . . . . . . + -.s$t$u$+ . . . . . . ;.4.E#v$6$w$x$D#c#[#[#[#[#c#p#y$z$. . . . . . . . . . . . . . . ",
". . . . . . . . . . . . . . . . . . . u A$B$Q C$D$z$. . . >.>#E$D#l$}#o#[#[#[#[#}#D#F$G$H$. . . . . . . . . . . . . . . . ",
". . . . . . . . . . . . . . . . . . . . . H$I$J$K$L$M$A.8$v.N$[#[#[#[#[#[#o#<#,#O$P$:@. . . . . . . . . . . . . . . . . . ",
". . . . . . . . . . . . . . . . . . . . . . . . . : Q$T R$3$S$o#o#>#c#p#D#T$U$V$W$. . . . . . . . . . . . . . . . . . . . ",
". . . . . . . . . . . . . . . . . . . . . . . . . . . . . >.X$Y$Z$`$ %.%+%)#. . . . . . . . . . . . . . . . . . . . . . . ",
". . . . . . . . . . . . . . . . . . . . . . . . . . . . . ^.n.u$E  .! . . . . . . . . . . . . . . . . . . . . . . . . . . ",
". . . . . . . . . . . . . . . . . . . . . . . . . . . . . . . . . . . . . . . . . . . . . . . . . . . . . . . . . . . . . ",
". . . . . . . . . . . . . . . . . . . . . . . . . . . . . . . . . . . . . . . . . . . . . . . . . . . . . . . . . . . . . ",
". . . . . . . . . . . . . . . . . . . . . . . . . . . . . . . . . . . . . . . . . . . . . . . . . . . . . . . . . . . . . ",
". . . . . . . . . . . . . . . . . . . . . . . . . . . . . . . . . . . . . . . . . . . . . . . . . . . . . . . . . . . . . ",
". . . . . . . . . . . . . . . . . . . . . . . . . . . . . . . . . . . . . . . . . . . . . . . . . . . . . . . . . . . . . ",
". . . . . . . . . . . . . . . . . . . . . . . . . . . . . . . . . . . . . . . . . . . . . . . . . . . . . . . . . . . . . "};
